<svg xmlns="http://www.w3.org/2000/svg" version="1.1" xmlns:xlink="http://www.w3.org/1999/xlink" xmlns:svgjs="http://svgjs.dev/svgjs" width="2000" height="1247" viewBox="0 0 2000 1247"><g transform="matrix(1,0,0,1,-1.2121212121212466,0.504858299595071)"><svg viewBox="0 0 396 247" data-background-color="#ffffff" preserveAspectRatio="xMidYMid meet" height="1247" width="2000" xmlns="http://www.w3.org/2000/svg" xmlns:xlink="http://www.w3.org/1999/xlink"><g id="tight-bounds" transform="matrix(1,0,0,1,0.2400000000000091,-0.09999999999999432)"><svg viewBox="0 0 395.52 247.2" height="247.2" width="395.52"><g><svg></svg></g><g><svg viewBox="0 0 395.52 247.2" height="247.2" width="395.52"><g transform="matrix(1,0,0,1,79.11776732673269,47.215199999999996)"><svg viewBox="0 0 237.2844653465346 152.7696" height="152.7696" width="237.2844653465346"><g><svg viewBox="0 0 237.2844653465346 152.7696" height="152.7696" width="237.2844653465346"><g><svg viewBox="0 0 237.2844653465346 152.7696" height="152.7696" width="237.2844653465346"><g><svg viewBox="0 0 237.2844653465346 152.7696" height="152.7696" width="237.2844653465346"><g id="textblocktransform"><svg viewBox="0 0 237.2844653465346 152.7696" height="152.7696" width="237.2844653465346" id="textblock"><g><svg viewBox="0 0 237.2844653465346 152.7696" height="152.7696" width="237.2844653465346"><g transform="matrix(1,0,0,1,0,0)"><svg width="237.2844653465346" viewBox="-0.3 -36.05 62.75 40.4" height="152.7696" data-palette-color="#cb1106"><path d="M1.8 4.35L1.8 4.35Q0.45 3.6 0.08 2.8-0.3 2-0.3 1.4L-0.3 1.4Q-0.3 0.05 0.7-2.27 1.7-4.6 3.38-7.58 5.05-10.55 7.15-13.8L7.15-13.8Q5.5-13.9 4.13-13.95 2.75-14 1-14L1-14-0.15-14Q0.5-15.7 1.98-16.38 3.45-17.05 5.45-17.05L5.45-17.05Q6.3-17.05 7.23-16.95 8.15-16.85 9.15-16.75L9.15-16.75Q11.65-20.4 14.15-23.75 16.65-27.1 18.88-29.75 21.1-32.4 22.75-34L22.75-34Q24.85-36.05 25.9-36.05L25.9-36.05Q26.55-36.05 27.35-35.55 28.15-35.05 29.05-34.25L29.05-34.25Q28.55-33.85 27.78-32.18 27-30.5 26.13-27.95 25.25-25.4 24.38-22.35 23.5-19.3 22.8-16.18 22.1-13.05 21.68-10.2 21.25-7.35 21.25-5.15L21.25-5.15Q21.25-3.2 21.65-2.2 22.05-1.2 23.05-1.2L23.05-1.2Q24.25-1.2 25.93-2.98 27.6-4.75 29.65-8.65L29.65-8.65 30.4-7.85Q28.9-3.75 26.48-1.15 24.05 1.45 21.35 1.45L21.35 1.45Q19.05 1.45 18.07-0.53 17.1-2.5 17.1-5.95L17.1-5.95Q17.1-7.25 17.28-8.85 17.45-10.45 17.8-12.55L17.8-12.55Q15.6-12.9 13.88-13.1 12.15-13.3 10.6-13.5L10.6-13.5Q8.2-9.25 5.95-4.67 3.7-0.1 1.8 4.35ZM18.25-14.75L18.25-14.75Q18.95-17.85 19.88-20.98 20.8-24.1 21.83-26.98 22.85-29.85 23.8-32.1L23.8-32.1Q22.3-30.95 20.38-28.65 18.45-26.35 16.35-23.15 14.25-19.95 12.1-16.2L12.1-16.2Q13.65-15.85 15.2-15.48 16.75-15.1 18.25-14.75ZM32.7 4.35L32.7 4.35Q33 2.55 33.4 0.73 33.8-1.1 34.37-3.38 34.95-5.65 35.85-8.58 36.75-11.5 38-15.45L38-15.45Q37.25-15.4 36.4-15.3 35.55-15.2 34.75-15.1L34.75-15.1Q34.75-16.6 35.92-17.4 37.1-18.2 39.05-18.6L39.05-18.6Q39.3-19.4 39.52-20.05 39.75-20.7 40-21.5 40.25-22.3 40.67-23.45 41.1-24.6 41.7-26.4 42.3-28.2 43.2-30.85L43.2-30.85Q43.35-31.2 43.6-31.98 43.85-32.75 43.85-33.45L43.85-33.45Q43.85-33.85 43.72-34 43.6-34.15 43.2-34.15L43.2-34.15Q42.1-34.15 41.05-33.23 40-32.3 39.15-30.88 38.3-29.45 37.8-27.93 37.3-26.4 37.3-25.25L37.3-25.25Q37.3-24.8 37.37-24.33 37.45-23.85 37.7-23.15L37.7-23.15Q35.75-23.15 34.9-24.05 34.05-24.95 34.05-26.3L34.05-26.3Q34.05-28 35.07-29.7 36.1-31.4 37.7-32.83 39.3-34.25 41.1-35.13 42.9-36 44.4-36L44.4-36Q45.9-36 46.47-35.18 47.05-34.35 47.05-33.35L47.05-33.35Q47.05-32.8 46.92-32.25 46.8-31.7 46.65-31.2L46.65-31.2 42.9-19Q43.55-19.05 44.2-19.05 44.85-19.05 45.55-19.05L45.55-19.05Q47.95-19.05 50.1-18.95 52.25-18.85 54.2-18.65L54.2-18.65Q55.35-22.5 56.27-25.33 57.2-28.15 57.92-30.13 58.65-32.1 59.15-33.3L59.15-33.3Q59.35-33.7 59.72-34.35 60.1-35 60.77-35.52 61.45-36.05 62.45-36.05L62.45-36.05Q61.8-34.25 60.87-31.38 59.95-28.5 59.02-25.13 58.1-21.75 57.2-18.4L57.2-18.4Q58-18.4 59.17-18.32 60.35-18.25 61.35-18.25L61.35-18.25Q59.95-16.8 58.8-16.48 57.65-16.15 56.65-16.15L56.65-16.15Q56.15-14 55.72-12.03 55.3-10.05 55-8.35L55-8.35Q54.3-4.8 53.97-2.23 53.65 0.35 53.65 2L53.65 2Q53.65 2.7 53.72 3.28 53.8 3.85 53.85 4.35L53.85 4.35Q51.5 4.1 50.65 3.15 49.8 2.2 49.8-0.05L49.8-0.05Q49.8-1.25 50-2.85 50.2-4.45 50.7-6.45L50.7-6.45Q51.1-8.2 51.8-10.63 52.5-13.05 53.45-16.1L53.45-16.1Q50.4-16.1 48.4-16.05 46.4-16 44.9-15.95 43.4-15.9 41.9-15.75L41.9-15.75Q41.55-14.65 41.12-13.28 40.7-11.9 40.1-10 39.5-8.1 38.67-5.43 37.85-2.75 36.65 1L36.65 1Q36.15 2.8 34.87 3.58 33.6 4.35 32.7 4.35Z" opacity="1" transform="matrix(1,0,0,1,0,0)" fill="#cb1106" class="wordmark-text-0" data-fill-palette-color="primary" id="text-0"></path></svg></g></svg></g></svg></g></svg></g></svg></g></svg></g></svg></g><g><path d="M0 123.6c0-68.262 55.338-123.6 123.6-123.6 30.402 0 58.24 10.976 79.768 29.183l-11.147 0c-19.26-14.022-42.974-22.294-68.621-22.295-64.458 0-116.712 52.254-116.712 116.712 0 64.458 52.254 116.712 116.712 116.712 25.647 0 49.361-8.272 68.621-22.295l11.147 0c-21.528 18.206-49.366 29.183-79.768 29.183-68.262 0-123.6-55.338-123.6-123.6z" fill="#cb1106" stroke="transparent" data-fill-palette-color="tertiary"></path></g></svg></g><defs></defs></svg><rect width="395.52" height="247.2" fill="none" stroke="none" visibility="hidden"></rect></g></svg></g></svg>